<?xml version="1.0" encoding="UTF-8"?>
<!DOCTYPE svg PUBLIC "-//W3C//DTD SVG 1.1//EN" "http://www.w3.org/Graphics/SVG/1.1/DTD/svg11.dtd">
<!-- Creator: CorelDRAW -->
<svg xmlns="http://www.w3.org/2000/svg" xml:space="preserve" width="120mm" height="120mm" version="1.1" style="shape-rendering:geometricPrecision; text-rendering:geometricPrecision; image-rendering:optimizeQuality; fill-rule:evenodd; clip-rule:evenodd"
viewBox="0 0 12000 12000"
 xmlns:xlink="http://www.w3.org/1999/xlink"
 xmlns:xodm="http://www.corel.com/coreldraw/odm/2003">
 <defs>
  <style type="text/css">
   <![CDATA[
    .fil1 {fill:url(#id0)}
    .fil3 {fill:url(#id1)}
    .fil2 {fill:url(#id2)}
    .fil8 {fill:url(#id3)}
    .fil0 {fill:url(#id4)}
    .fil5 {fill:url(#id5)}
    .fil4 {fill:url(#id6)}
    .fil7 {fill:url(#id7)}
    .fil6 {fill:url(#id8)}
   ]]>
  </style>
  <linearGradient id="id0" gradientUnits="userSpaceOnUse" x1="11054.24" y1="7308.7" x2="11061.3" y2="7853.73">
   <stop offset="0" style="stop-opacity:1; stop-color:#14A411"/>
   <stop offset="1" style="stop-opacity:1; stop-color:#95FF54"/>
  </linearGradient>
  <linearGradient id="id1" gradientUnits="userSpaceOnUse" x1="2953.78" y1="1320.76" x2="2953.82" y2="10873.15">
   <stop offset="0" style="stop-opacity:1; stop-color:#F3FFB5"/>
   <stop offset="1" style="stop-opacity:1; stop-color:#019D30"/>
  </linearGradient>
  <linearGradient id="id2" gradientUnits="userSpaceOnUse" x1="8758.22" y1="-310.32" x2="8758.26" y2="6871.13">
   <stop offset="0" style="stop-opacity:1; stop-color:#B7B9B5"/>
   <stop offset="1" style="stop-opacity:1; stop-color:#5F5B5A"/>
  </linearGradient>
  <linearGradient id="id3" gradientUnits="userSpaceOnUse" x1="8724.34" y1="1383.42" x2="8724.38" y2="7006.63">
   <stop offset="0" style="stop-opacity:1; stop-color:#5D5F5E"/>
   <stop offset="1" style="stop-opacity:1; stop-color:#5C5756"/>
  </linearGradient>
  <linearGradient id="id4" gradientUnits="userSpaceOnUse" x1="9605.09" y1="6634.01" x2="9605.13" y2="13036.33">
   <stop offset="0" style="stop-opacity:1; stop-color:#0CB894"/>
   <stop offset="1" style="stop-opacity:1; stop-color:#018F63"/>
  </linearGradient>
  <linearGradient id="id5" gradientUnits="userSpaceOnUse" xlink:href="#id4" x1="7403.13" y1="-978.56" x2="7403.46" y2="10832.63">
  </linearGradient>
  <linearGradient id="id6" gradientUnits="userSpaceOnUse" xlink:href="#id0" x1="4658.18" y1="2661.2" x2="4861.32" y2="7518.27">
  </linearGradient>
  <linearGradient id="id7" gradientUnits="userSpaceOnUse" xlink:href="#id0" x1="2615.04" y1="2066.01" x2="2823.88" y2="9869.43">
  </linearGradient>
  <linearGradient id="id8" gradientUnits="objectBoundingBox" x1="35.9915%" y1="8.10291%" x2="35.992%" y2="107.557%">
   <stop offset="0" style="stop-opacity:1; stop-color:#DAF4EB"/>
   <stop offset="1" style="stop-opacity:1; stop-color:#20FAC6"/>
  </linearGradient>
 </defs>
 <g id="Camada_x0020_1">
  <metadata id="CorelCorpID_0Corel-Layer"/>
  <g id="_2781669352576">
   <path class="fil0" d="M10523.57 8120.62c-773.48,1651.16 -2423.07,2810.08 -4350.3,2878.27l0 750.42c2237.43,-68.8 4153.06,-1415.81 5041.25,-3335.4l-690.95 -293.29z"/>
   <circle class="fil1" cx="11129.42" cy="7583.61" r="375"/>
   <path class="fil2" d="M11129.42 7115.47c200.36,0 371.32,125.88 438.12,302.86 114.76,-453.05 175.73,-927.54 175.73,-1416.26 0,-3115.42 -2477.65,-5652.15 -5570,-5747.24l0 750.42c2678.05,94.76 4820,2295.65 4820,4996.82 0,416.81 -51,821.7 -147.1,1208.79 78.64,-59.86 176.8,-95.39 283.25,-95.39z"/>
   <path class="fil3" d="M993.27 6002.07c0,-2701.17 2141.95,-4902.06 4820,-4996.82l0 -750.42c-3092.35,95.09 -5570,2631.82 -5570,5747.24 0,3115.42 2477.65,5652.15 5570,5747.24l0 -750.42c-2678.05,-94.76 -4820,-2295.65 -4820,-4996.82z"/>
   <polygon class="fil4" points="5993.27,8458.29 5993.27,1763.99 3922,5351.54 5034.06,5033.96 "/>
   <polygon class="fil5" points="5993.27,1763.99 5993.27,8458.29 6952.48,5033.96 8064.54,5351.54 "/>
   <path class="fil6" d="M3026.45 9711.8l0 -3388.46 -1666.57 0 0 729.46c240.95,1067.03 841.04,1997.94 1666.57,2659zm232.17 -4045.3l0 4219.89c494.31,348.64 1058.13,605.31 1666.57,745.12l0 -4965.01 -1666.57 0zm1898.74 3000.96l0 2011.3c271.37,48.17 550.7,73.31 835.91,73.31 283.37,0 560.94,-24.81 830.66,-72.39l0 -2012.22 -830.66 0 -835.91 0zm1898.75 -1983.07l0 3948.32c608.3,-139.05 1172.1,-394.87 1666.57,-742.63l0 -3205.69 -1666.57 0zm1898.74 -1408.75l0 4440.35c822.3,-656.58 1421.72,-1580.57 1666.57,-2640.26l0 -1800.09 -1666.57 0z"/>
   <path class="fil7" d="M993.27 6002.07c0,-2701.17 2141.95,-4902.06 4820,-4996.82l0 -375.22c-2885.21,94.93 -5195,2463.74 -5195,5372.04 0,2908.3 2309.79,5277.11 5195,5372.04l0 -375.22c-2678.05,-94.76 -4820,-2295.65 -4820,-4996.82z"/>
   <path class="fil6" d="M10523.57 8120.62c-773.48,1651.16 -2423.07,2810.08 -4350.3,2878.27l0 375.22c2082.34,-68.52 3864.94,-1321.47 4695.79,-3106.84l-345.49 -146.65z"/>
   <path class="fil8" d="M6173.27 1005.25c2678.05,94.76 4820,2295.65 4820,4996.82 0,416.81 -51,821.7 -147.1,1208.79 78.64,-59.86 176.8,-95.39 283.25,-95.39 41.51,0 81.77,5.4 120.09,15.55 77.81,-364.02 118.76,-741.7 118.76,-1128.95 0,-2908.3 -2309.79,-5277.11 -5195,-5372.04l0 375.22z"/>
  </g>
 </g>
</svg>
